<?xml version="1.0" encoding="UTF-8" standalone="no"?>
<svg
   version="1.0"
   width="1350.000000pt"
   height="1350.000000pt"
   viewBox="0 0 1350.000000 1350.000000"
   preserveAspectRatio="xMidYMid meet"
   id="svg135"
   sodipodi:docname="RoboSimWhiteLogo.svg"
   inkscape:version="1.1.2 (0a00cf5339, 2022-02-04)"
   xmlns:inkscape="http://www.inkscape.org/namespaces/inkscape"
   xmlns:sodipodi="http://sodipodi.sourceforge.net/DTD/sodipodi-0.dtd"
   xmlns="http://www.w3.org/2000/svg"
   xmlns:svg="http://www.w3.org/2000/svg">
  <defs
     id="defs139">
    <rect
       x="2049.532"
       y="877.1879"
       width="40.328015"
       height="201.69052"
       id="rect175779" />
    <rect
       x="183.26899"
       y="524.75475"
       width="2640.5208"
       height="1373.9194"
       id="rect166675" />
    <rect
       x="814.26764"
       y="1113.1673"
       width="893.93295"
       height="563.86321"
       id="rect155017" />
    <rect
       x="1522.4492"
       y="946.56305"
       width="436.81121"
       height="227.20611"
       id="rect80401" />
    <rect
       x="462.64572"
       y="1630.0581"
       width="207.48597"
       height="167.43372"
       id="rect73311" />
    <rect
       x="816.76836"
       y="955.03806"
       width="1589.4018"
       height="1254.5343"
       id="rect33819" />
    <rect
       x="843.06667"
       y="914.93333"
       width="809.74904"
       height="670.61328"
       id="rect3347" />
  </defs>
  <sodipodi:namedview
     id="namedview137"
     pagecolor="#505050"
     bordercolor="#eeeeee"
     borderopacity="1"
     inkscape:pageshadow="0"
     inkscape:pageopacity="0"
     inkscape:pagecheckerboard="0"
     inkscape:document-units="pt"
     showgrid="false"
     inkscape:zoom="0.46944444"
     inkscape:cx="1131.1243"
     inkscape:cy="821.18343"
     inkscape:window-width="1920"
     inkscape:window-height="1056"
     inkscape:window-x="0"
     inkscape:window-y="0"
     inkscape:window-maximized="1"
     inkscape:current-layer="svg135" />
  <g
     transform="translate(0.000000,1350.000000) scale(0.100000,-0.100000)"
     fill="#ffffff"
     stroke="none"
     id="g133"
     style="stroke:#000000;stroke-opacity:1">
    <path
       d="M6345 11769 c-38 -5 -117 -13 -175 -19 -289 -26 -852 -147 -1040 -223 -14 -5 -38 -13 -55 -18 -54 -14 -199 -66 -259 -93 -32 -14 -62 -26 -67 -26 -8 0 -42 -15 -174 -75 -72 -32 -353 -174 -385 -193 -19 -12 -42 -25 -50 -28 -53 -23 -381 -232 -480 -306 -309 -230 -525 -422 -786 -699 -63 -66 -192 -221 -259 -309 -27 -36 -52 -67 -55 -70 -8 -6 -124 -167 -187 -259 -25 -35 -85 -131 -134 -215 -50 -83 -94 -158 -99 -166 -15 -23 -185 -370 -207 -420 -11 -25 -28 -65 -38 -90 -10 -25 -23 -58 -30 -75 -37 -85 -120 -322 -135 -385 -5 -19 -18 -66 -29 -105 -12 -38 -25 -88 -30 -110 -13 -62 -31 -135 -47 -191 -8 -28 -14 -59 -14 -70 0 -10 -6 -50 -14 -89 -20 -96 -42 -258 -62 -455 -18 -189 -16 -686 5 -870 27 -240 53 -416 87 -580 22 -106 67 -286 88 -355 7 -22 21 -67 30 -100 10 -33 24 -75 32 -93 8 -18 14 -39 14 -47 0 -8 6 -29 14 -47 13 -31 23 -58 60 -155 61 -163 190 -439 271 -578 19 -33 38 -67 42 -75 18 -40 135 -227 201 -325 184 -271 416 -550 652 -785 109 -110 250 -238 350 -320 30 -25 57 -47 60 -50 7 -8 155 -119 210 -158 25 -17 70 -49 100 -71 30 -22 86 -59 123 -83 38 -24 80 -51 95 -60 15 -10 36 -22 47 -28 11 -6 34 -19 50 -30 17 -11 39 -24 50 -30 11 -5 47 -25 80 -44 58 -34 420 -215 480 -241 17 -7 46 -20 65 -28 19 -8 51 -22 70 -30 19 -8 54 -22 78 -31 103 -39 129 -49 157 -61 55 -23 97 -28 106 -14 5 8 9 145 9 305 0 221 -3 294 -12 302 -7 5 -88 42 -179 80 -150 64 -330 152 -433 211 -22 13 -62 35 -88 49 -57 31 -68 38 -128 76 -373 237 -605 420 -876 690 -176 176 -288 306 -437 502 -72 96 -216 305 -231 335 -3 8 -15 28 -25 44 -11 17 -31 50 -44 75 -14 25 -34 61 -45 80 -34 57 -168 331 -192 390 -12 30 -27 66 -33 80 -20 47 -37 95 -87 245 -27 83 -56 171 -65 196 -8 26 -15 54 -15 64 0 10 -6 38 -14 64 -20 62 -37 136 -46 191 -4 25 -12 72 -18 105 -95 504 -95 1066 0 1570 6 33 14 80 18 105 11 66 47 209 105 415 10 33 24 75 31 93 8 18 14 41 14 50 0 10 7 27 15 38 8 10 15 27 15 36 0 10 6 32 14 50 8 18 31 74 51 123 32 79 200 424 225 465 21 33 100 171 100 174 0 22 293 424 394 541 182 211 452 471 661 638 33 26 69 55 80 64 20 17 146 106 250 178 33 22 96 62 140 88 44 26 87 52 95 57 8 6 24 15 35 20 11 6 47 26 80 44 67 38 289 150 376 189 50 23 96 42 169 67 14 5 50 18 80 30 112 42 304 103 430 135 36 9 88 23 116 31 28 8 59 14 70 14 10 0 48 6 84 15 67 15 176 32 385 61 171 24 778 24 950 0 268 -37 392 -58 525 -91 100 -25 184 -47 225 -59 22 -7 67 -21 100 -31 33 -9 71 -22 85 -27 14 -5 56 -20 95 -33 75 -26 122 -43 170 -64 17 -8 45 -20 62 -28 18 -7 47 -20 65 -28 73 -31 307 -147 363 -180 33 -19 67 -38 75 -42 32 -15 200 -118 295 -181 392 -261 710 -549 1044 -947 281 -336 541 -786 708 -1230 8 -22 21 -56 29 -75 7 -19 26 -78 42 -130 28 -88 38 -122 75 -255 13 -46 28 -111 62 -275 90 -426 101 -985 29 -1465 -41 -272 -88 -478 -165 -725 -17 -52 -36 -111 -44 -130 -7 -19 -27 -73 -45 -120 -41 -110 -42 -112 -151 -335 -51 -104 -123 -239 -159 -298 -36 -59 -70 -115 -75 -125 -6 -9 -32 -48 -58 -87 -364 -533 -778 -941 -1322 -1301 -55 -36 -119 -79 -143 -95 -23 -16 -45 -29 -47 -29 -2 0 -37 -19 -77 -43 -40 -24 -80 -46 -88 -50 -8 -4 -42 -23 -75 -42 -80 -45 -207 -107 -350 -169 -33 -15 -73 -33 -88 -41 -16 -8 -35 -15 -44 -15 -8 0 -28 -8 -44 -17 -15 -9 -31 -14 -35 -10 -4 4 -6 66 -5 139 2 155 -13 227 -71 328 -4 8 -12 25 -17 36 -18 42 -137 158 -211 206 -41 27 -77 51 -79 53 -2 3 8 20 23 39 14 19 26 37 26 39 0 3 16 29 36 58 44 65 104 192 129 274 10 33 24 77 31 98 8 20 14 48 14 62 0 22 26 48 82 80 17 10 138 86 186 117 15 10 36 22 47 28 11 6 32 18 47 28 15 9 59 37 98 62 39 25 83 53 98 62 15 10 36 22 47 28 11 6 65 39 120 75 55 36 109 70 120 75 11 6 32 18 46 28 15 9 59 37 98 62 40 25 83 52 96 60 13 8 67 42 120 75 53 33 107 67 120 75 29 18 173 108 312 194 56 35 99 66 96 70 -4 3 -67 6 -142 6 -173 0 -316 28 -456 90 -81 35 -88 39 -120 60 -16 11 -37 23 -45 27 -36 16 -131 96 -194 164 -69 73 -154 197 -189 274 -10 22 -25 53 -33 68 -8 16 -14 35 -14 42 0 26 -23 65 -38 65 -12 0 -138 -73 -230 -132 -15 -10 -36 -22 -47 -28 -11 -6 -32 -18 -47 -28 -58 -37 -520 -318 -545 -331 -22 -12 -28 -11 -52 8 -161 127 -299 205 -491 276 -223 82 -552 94 -805 28 -265 -69 -473 -189 -668 -386 -42 -44 -141 -169 -174 -222 -25 -40 -113 -224 -113 -237 0 -7 -7 -33 -16 -57 -8 -24 -13 -50 -10 -58 4 -10 44 -13 189 -13 101 0 186 -2 189 -5 3 -3 -1 -25 -8 -48 -41 -132 -44 -151 -44 -313 0 -135 4 -179 21 -245 11 -45 17 -85 12 -89 -4 -4 -87 -10 -183 -13 -96 -3 -176 -6 -177 -6 -13 -4 2 -73 47 -211 24 -73 110 -241 158 -307 36 -50 30 -66 -35 -93 -62 -26 -170 -103 -211 -152 -70 -83 -117 -170 -110 -204 3 -18 31 -19 844 -22 l841 -2 41 -36 c84 -71 79 -172 -12 -244 -16 -13 -113 -16 -685 -20 l-666 -5 0 -399 0 -400 50 -13 c28 -7 82 -18 120 -23 39 -5 99 -14 135 -19 243 -39 535 -61 785 -61 420 0 942 73 1325 186 164 48 259 78 288 90 18 8 39 14 47 14 8 0 29 6 47 14 18 8 51 21 73 29 145 55 231 93 465 206 165 80 215 108 424 234 167 100 160 95 416 284 373 275 669 555 975 924 90 108 311 415 339 470 8 16 22 39 57 94 14 22 39 65 56 95 17 30 45 81 62 113 74 134 180 359 226 477 9 25 21 53 26 62 25 50 150 427 184 558 9 36 23 88 31 116 8 28 14 59 14 69 0 10 6 41 14 69 8 28 22 94 30 146 8 52 22 136 31 185 8 50 15 108 15 130 0 22 7 90 15 150 21 155 21 688 0 890 -15 144 -33 273 -57 400 -6 33 -14 80 -18 105 -4 25 -13 68 -20 95 -6 28 -19 77 -27 110 -19 80 -66 245 -85 300 -5 17 -14 44 -18 60 -25 88 -96 275 -136 358 -8 16 -14 33 -14 38 0 19 -166 363 -231 479 -30 54 -159 269 -189 315 -66 102 -242 340 -366 495 -157 197 -490 530 -684 684 -182 145 -451 340 -510 369 -18 9 -40 23 -98 60 -23 15 -59 37 -80 48 -20 11 -50 29 -67 39 -31 19 -456 232 -510 255 -41 17 -181 74 -230 92 -22 9 -49 19 -60 24 -36 15 -110 41 -135 46 -14 3 -34 12 -45 19 -11 8 -28 14 -39 14 -11 0 -38 6 -61 14 -237 82 -685 176 -940 196 -55 5 -140 13 -190 19 -105 13 -598 12 -700 0z m493 -6729 c148 -16 236 -42 367 -108 287 -144 483 -406 534 -713 26 -159 4 -370 -54 -504 -90 -209 -191 -340 -360 -467 -60 -45 -240 -138 -268 -138 -8 0 -33 -7 -55 -14 -69 -25 -311 -40 -435 -27 -133 13 -187 42 -228 123 -18 36 -19 71 -19 862 0 814 0 825 21 860 42 71 124 112 249 125 122 12 141 12 248 1z"
       id="path91"
       style="stroke:#000000;stroke-opacity:1;stroke-width:135.99999998;stroke-miterlimit:4;stroke-dasharray:none" />
    <path
       d="M6667 4723 c-13 -12 -8 -331 5 -339 6 -4 46 -9 89 -11 96 -4 157 -30 218 -92 78 -78 95 -119 95 -236 1 -98 0 -101 -35 -156 -34 -51 -77 -92 -139 -131 -24 -15 -127 -36 -200 -41 l-35 -2 -3 -162 c-3 -196 -9 -189 136 -179 179 12 335 85 457 211 152 157 222 381 184 589 -31 169 -134 329 -274 428 -58 40 -177 98 -203 98 -9 0 -39 7 -66 15 -49 15 -217 21 -229 8z"
       id="path93"
       style="stroke:#000000;stroke-opacity:1;stroke-width:131.60000003;stroke-miterlimit:4;stroke-dasharray:none" />
    <path
       d="M6697 10800 c-238 -79 -381 -249 -410 -488 -14 -123 1 -221 51 -324 37 -76 122 -188 142 -188 14 0 249 250 250 266 0 6 -12 21 -26 35 -44 41 -84 119 -84 166 0 73 54 153 128 189 35 17 98 21 202 12 l35 -3 0 175 0 175 -115 2 c-91 2 -127 -2 -173 -17z"
       id="path95"
       style="stroke:#000000;stroke-opacity:1;stroke-width:135.99999998;stroke-miterlimit:4;stroke-dasharray:none" />
    <path
       d="M8215 10360 c-3 -6 -10 -46 -14 -90 -9 -83 -21 -110 -51 -110 -10 0 -39 -9 -65 -21 -57 -25 -92 -21 -143 20 -75 58 -76 58 -138 -1 -31 -29 -64 -64 -74 -78 -18 -26 -18 -26 31 -90 27 -36 49 -69 49 -74 0 -5 -14 -46 -31 -92 l-32 -83 -71 -12 c-124 -20 -116 -11 -116 -143 0 -131 -9 -120 109 -135 40 -5 74 -11 76 -13 1 -2 18 -39 37 -83 l34 -80 -48 -70 c-26 -39 -48 -75 -48 -81 0 -17 125 -144 142 -144 9 0 40 16 69 36 86 58 83 57 141 30 29 -13 65 -27 80 -30 31 -7 36 -19 52 -125 l12 -76 94 -3 c141 -4 137 -6 145 85 8 84 25 123 54 123 10 0 44 11 75 25 63 28 58 29 146 -29 30 -20 61 -36 70 -36 17 0 140 127 140 145 0 7 -15 32 -33 56 -68 92 -67 88 -40 144 13 28 27 64 31 80 8 28 12 31 83 42 132 22 119 7 119 138 0 64 -4 116 -10 120 -5 3 -47 14 -92 24 -46 10 -85 24 -89 32 -18 35 -59 141 -59 152 0 7 23 43 50 80 40 52 49 70 41 84 -13 26 -127 133 -141 133 -6 0 -35 -18 -64 -40 -68 -50 -93 -56 -142 -34 -21 9 -55 19 -74 23 -30 5 -37 12 -47 46 -6 22 -15 67 -20 100 l-8 60 -112 3 c-70 2 -114 -1 -118 -8z m225 -431 c192 -73 295 -274 229 -449 -67 -178 -252 -276 -429 -227 -123 34 -206 115 -251 245 -24 70 -24 124 1 196 66 193 274 302 450 235z"
       id="path97"
       style="stroke:#000000;stroke-opacity:1;stroke-width:135.99999998;stroke-miterlimit:4;stroke-dasharray:none" />
    <path
       d="M4886 10328 c-3 -7 -7 -46 -9 -87 -4 -62 -8 -78 -27 -93 -12 -10 -31 -18 -41 -18 -11 0 -44 -13 -75 -30 l-56 -30 -56 32 c-32 17 -64 36 -72 43 -41 33 -52 29 -132 -57 -43 -45 -78 -86 -78 -91 0 -5 20 -38 45 -73 25 -34 45 -70 45 -80 0 -9 -13 -46 -30 -81 -16 -34 -30 -71 -30 -82 0 -30 -19 -39 -110 -51 -47 -6 -89 -15 -93 -19 -4 -4 -6 -64 -5 -132 l3 -124 73 -7 c106 -9 121 -14 128 -46 4 -15 20 -54 35 -88 16 -34 29 -68 29 -77 0 -9 -20 -47 -46 -83 -25 -37 -43 -72 -41 -78 11 -26 140 -166 153 -166 8 0 33 12 57 27 61 40 105 63 118 63 7 0 41 -13 76 -30 34 -16 69 -30 76 -30 30 0 49 -39 54 -107 9 -106 4 -103 149 -103 103 0 126 3 131 15 3 9 11 55 17 102 l11 86 60 22 c33 12 76 29 94 37 41 19 44 18 139 -40 l72 -44 52 57 c53 59 108 125 108 131 0 3 -18 31 -41 64 -23 33 -41 71 -41 83 0 12 16 60 35 107 40 94 43 97 144 99 86 2 83 -3 83 137 0 143 4 137 -104 149 -82 8 -96 13 -96 31 0 13 -13 46 -51 130 -11 23 -19 48 -19 55 0 17 66 120 84 131 15 10 -4 40 -85 126 l-65 70 -65 -35 c-35 -19 -76 -42 -91 -51 -25 -15 -30 -14 -90 11 -35 15 -70 27 -79 27 -29 0 -44 30 -59 119 l-15 86 -133 3 c-101 2 -133 0 -136 -10z m279 -548 c53 -27 121 -93 148 -144 32 -60 31 -212 -1 -274 -52 -98 -123 -151 -230 -173 -66 -14 -149 -2 -207 29 -36 20 -115 92 -115 106 0 5 -6 17 -13 25 -16 19 -47 115 -47 145 0 27 31 122 52 162 32 58 122 126 193 145 51 14 176 2 220 -21z"
       id="path99"
       style="stroke:#000000;stroke-opacity:1;stroke-width:135.99999998;stroke-miterlimit:4;stroke-dasharray:none" />
    <path
       d="M6885 9883 c-93 -96 -173 -183 -177 -194 -10 -26 5 -32 91 -37 82 -4 189 18 267 57 54 26 135 88 169 129 l27 32 -27 33 c-64 76 -148 157 -163 156 -9 0 -93 -79 -187 -176z"
       id="path101"
       style="stroke:#000000;stroke-opacity:1;stroke-width:135.99999998;stroke-miterlimit:4;stroke-dasharray:none" />
    <path
       d="M3527 9205 c-70 -74 -106 -119 -101 -127 4 -7 22 -31 39 -53 62 -77 71 -161 29 -250 -30 -64 -80 -107 -152 -130 -63 -21 -105 -17 -190 18 l-62 25 -30 -28 -30 -28 0 -170 c0 -124 3 -172 13 -179 6 -5 54 -15 105 -22 147 -20 276 9 421 94 40 24 124 102 159 149 42 56 90 151 104 206 5 19 13 51 18 70 5 19 10 60 10 90 0 60 -33 207 -50 224 -5 5 -10 16 -10 22 0 29 -138 204 -160 204 -3 0 -54 -52 -113 -115z"
       id="path103"
       style="stroke:#000000;stroke-opacity:1;stroke-width:135.99999998;stroke-miterlimit:4;stroke-dasharray:none" />
    <path
       d="M9495 9261 c-87 -25 -88 -26 -82 -85 3 -28 8 -59 12 -68 11 -28 -20 -33 -72 -10 -26 11 -54 17 -63 13 -25 -9 -120 -119 -120 -137 0 -9 16 -34 35 -55 39 -44 39 -54 -1 -145 l-23 -52 -70 -7 c-39 -4 -75 -13 -81 -20 -7 -8 -10 -54 -8 -121 l3 -109 79 -10 c52 -7 82 -15 87 -25 21 -37 59 -125 59 -134 0 -6 -18 -30 -40 -54 -22 -24 -40 -49 -40 -56 0 -7 26 -41 58 -75 54 -59 60 -63 89 -57 17 4 37 14 44 22 6 8 24 14 40 14 32 0 33 -4 20 -83 -11 -64 0 -76 88 -97 83 -21 99 -18 108 19 3 14 14 43 25 64 l18 37 69 0 c74 0 89 -10 104 -70 4 -14 15 -35 24 -47 17 -20 22 -21 63 -11 25 6 62 18 84 26 l39 16 -6 73 c-5 71 -5 73 18 73 12 0 28 -7 35 -15 7 -8 25 -15 41 -15 27 0 70 37 127 111 l21 25 -39 45 c-22 24 -39 51 -40 59 0 8 12 45 27 82 29 71 40 78 129 78 17 0 36 6 42 13 16 19 19 201 4 220 -8 9 -38 18 -78 23 l-65 6 -21 47 c-11 25 -27 58 -34 73 -19 36 -19 37 26 87 22 25 40 50 40 56 0 13 -52 70 -102 114 l-27 23 -46 -22 c-50 -24 -81 -21 -70 8 4 9 9 40 12 67 5 48 4 51 -23 64 -32 15 -96 31 -133 34 -18 1 -28 -5 -37 -23 -6 -14 -20 -43 -30 -65 l-19 -40 -70 4 c-39 2 -73 8 -77 14 -3 6 -14 35 -23 64 -19 61 -28 64 -130 34z m376 -357 c112 -56 199 -194 199 -313 0 -78 -42 -174 -104 -239 -55 -58 -88 -76 -170 -97 -65 -16 -73 -16 -140 1 -71 18 -152 63 -193 106 -12 13 -36 52 -54 88 -29 58 -32 74 -32 150 1 106 24 162 98 236 81 82 147 105 273 98 52 -3 86 -11 123 -30z"
       id="path105"
       style="stroke:#000000;stroke-opacity:1;stroke-width:135.99999998;stroke-miterlimit:4;stroke-dasharray:none" />
    <path
       d="M9645 8751 c-80 -37 -119 -115 -95 -193 16 -56 42 -88 93 -115 51 -28 89 -29 144 -4 61 28 103 90 103 153 0 135 -124 215 -245 159z"
       id="path107"
       style="stroke:#000000;stroke-opacity:1;stroke-width:135.99999998;stroke-miterlimit:4;stroke-dasharray:none" />
    <path
       d="M6119 8720 c-65 -53 -84 -120 -52 -188 23 -51 51 -76 101 -90 81 -24 165 26 190 113 28 98 -48 195 -151 195 -43 0 -59 -5 -88 -30z"
       id="path109"
       style="stroke:#000000;stroke-opacity:1;stroke-width:135.99999998;stroke-miterlimit:4;stroke-dasharray:none" />
    <path
       d="M7275 8433 c-137 -41 -254 -121 -339 -232 -73 -96 -101 -167 -126 -326 -12 -75 13 -252 39 -278 6 -6 11 -17 11 -23 0 -7 16 -40 36 -74 89 -148 239 -256 410 -294 93 -21 161 -20 259 4 152 36 215 70 320 174 109 108 156 198 183 355 15 85 15 101 0 186 -43 247 -213 436 -457 509 -69 21 -265 20 -336 -1z m287 -338 c246 -117 249 -432 5 -556 -59 -31 -194 -31 -253 0 -101 53 -172 152 -182 254 -11 113 71 247 183 302 72 34 174 35 247 0z"
       id="path111"
       style="stroke:#000000;stroke-opacity:1;stroke-width:135.99999998;stroke-miterlimit:4;stroke-dasharray:none" />
    <path
       d="M4008 8341 c-59 -22 -121 -71 -152 -119 -35 -57 -59 -146 -51 -190 28 -170 141 -273 299 -271 86 0 140 20 205 77 86 73 122 176 97 277 -19 82 -39 117 -91 163 -86 76 -206 100 -307 63z m170 -190 c45 -33 57 -67 46 -126 -15 -81 -127 -115 -190 -57 -46 42 -60 92 -39 136 20 43 69 76 111 76 19 0 47 -12 72 -29z"
       id="path113"
       style="stroke:#000000;stroke-opacity:1;stroke-width:135.99999998;stroke-miterlimit:4;stroke-dasharray:none" />
    <path
       d="M8339 7983 c-1 -5 -1 -57 0 -118 5 -293 -82 -510 -282 -702 -141 -135 -321 -223 -496 -242 -30 -3 -56 -11 -58 -17 -4 -12 48 -62 281 -269 44 -38 84 -75 90 -80 6 -6 47 -42 91 -80 44 -38 87 -76 96 -84 32 -31 96 -89 209 -186 63 -55 120 -105 125 -111 21 -23 146 -124 154 -124 5 0 12 33 16 73 9 88 35 194 69 279 36 90 55 125 122 224 134 200 304 331 542 418 91 33 140 46 174 46 70 0 59 31 -35 100 -34 25 -93 72 -132 105 -38 33 -90 76 -115 95 -25 19 -47 37 -50 41 -3 3 -36 30 -75 60 -38 29 -72 55 -75 59 -3 3 -36 30 -75 60 -38 30 -72 57 -75 60 -4 5 -74 62 -190 155 -182 146 -286 231 -288 237 -5 10 -22 10 -23 1z m172 -965 c112 -33 119 -192 10 -228 -52 -17 -87 -7 -128 36 -26 28 -33 44 -33 76 0 48 30 95 74 114 38 16 31 16 77 2z"
       id="path115"
       style="stroke:#000000;stroke-opacity:1;stroke-width:135.99999998;stroke-miterlimit:4;stroke-dasharray:none" />
    <path
       d="M4923 7941 c-73 -53 -89 -124 -43 -198 61 -100 193 -91 247 17 27 54 28 58 7 111 -11 25 -33 52 -57 70 -53 39 -101 39 -154 0z"
       id="path117"
       style="stroke:#000000;stroke-opacity:1;stroke-width:135.99999998;stroke-miterlimit:4;stroke-dasharray:none" />
    <path
       d="M6485 7849 c-16 -10 -37 -22 -45 -26 -8 -5 -73 -46 -145 -93 -71 -47 -170 -110 -218 -140 -48 -30 -100 -63 -115 -72 -15 -10 -34 -21 -42 -25 -8 -4 -42 -25 -75 -47 -68 -46 -66 -44 -184 -117 l-85 -51 -59 9 c-181 29 -378 -94 -431 -270 -3 -9 -16 -21 -28 -26 -13 -5 -43 -16 -68 -26 -25 -9 -58 -23 -75 -30 -16 -7 -50 -20 -75 -30 -25 -9 -55 -21 -68 -26 -13 -5 -26 -9 -30 -9 -4 0 -39 31 -78 69 -143 139 -303 239 -459 286 -90 28 -218 47 -310 47 -118 0 -292 -32 -380 -71 -140 -60 -226 -116 -314 -203 -183 -181 -271 -390 -271 -644 0 -99 20 -226 39 -247 6 -6 192 83 288 139 45 26 118 177 167 344 15 52 18 56 63 74 27 10 95 41 153 70 58 28 108 52 111 54 3 1 28 -18 55 -43 82 -77 178 -136 274 -168 50 -17 179 -45 225 -49 28 -3 30 -6 36 -53 8 -77 66 -222 105 -266 20 -22 18 -36 -14 -78 -83 -108 -141 -283 -152 -455 l-5 -90 -50 -24 c-27 -14 -86 -42 -129 -64 -84 -43 -92 -43 -185 -6 -29 11 -176 38 -211 38 -14 0 -77 -26 -140 -59 -174 -89 -202 -105 -207 -119 -17 -44 229 -204 377 -245 163 -46 268 -54 406 -32 60 10 124 24 143 31 18 8 40 14 48 14 13 0 111 46 174 81 81 47 220 175 285 264 40 55 48 69 87 150 54 112 67 144 67 166 0 11 5 29 11 40 13 25 40 258 38 322 -3 60 10 73 116 116 44 18 91 39 105 46 48 25 85 27 111 7 58 -44 109 -57 219 -57 93 0 112 4 161 27 68 32 116 72 154 130 45 66 67 88 90 88 12 0 30 7 41 15 10 8 28 15 39 15 11 0 29 6 40 14 11 7 31 16 45 19 14 3 50 15 80 27 30 12 70 25 88 30 18 4 38 12 45 18 7 5 23 12 37 15 14 3 50 15 80 26 30 12 87 33 125 46 39 13 95 33 125 45 30 11 87 32 125 45 39 13 95 33 125 45 46 17 147 51 198 66 26 8 9 23 -71 63 -172 84 -328 225 -403 361 -10 19 -23 41 -29 49 -40 56 -105 316 -105 419 0 28 -3 52 -7 51 -5 0 -21 -9 -38 -20z m-870 -925 c59 -44 80 -89 79 -164 -2 -96 -38 -146 -132 -183 -53 -21 -84 -21 -125 -1 -90 46 -137 111 -137 189 0 79 61 161 137 185 50 17 140 3 178 -26z"
       id="path119"
       style="stroke:#000000;stroke-opacity:1;stroke-width:135.99999998;stroke-miterlimit:4;stroke-dasharray:none" />
    <path
       d="M2760 7590 c-51 -26 -75 -73 -74 -142 1 -46 6 -64 27 -92 84 -109 277 -45 277 92 0 123 -123 200 -230 142z"
       id="path121"
       style="stroke:#000000;stroke-opacity:1;stroke-width:135.99999998;stroke-miterlimit:4;stroke-dasharray:none" />
    <path
       d="M10442 7587 c-50 -33 -72 -74 -72 -132 0 -62 35 -120 86 -141 172 -72 304 150 156 263 -54 41 -118 45 -170 10z"
       id="path123"
       style="stroke:#000000;stroke-opacity:1;stroke-width:135.99999998;stroke-miterlimit:4;stroke-dasharray:none" />
    <path
       d="M9485 6725 c-22 -8 -48 -15 -57 -15 -16 0 -45 -11 -128 -49 -139 -65 -277 -200 -359 -354 -82 -153 -109 -333 -76 -512 24 -133 65 -223 155 -345 107 -144 232 -228 425 -287 91 -27 335 -25 427 5 135 43 236 101 332 191 49 46 136 153 136 167 0 4 6 15 14 23 18 22 71 162 90 243 65 270 -62 599 -304 790 -25 19 -52 38 -60 42 -8 3 -30 15 -49 27 -37 22 -98 46 -151 59 -19 5 -53 13 -75 19 -60 16 -272 13 -320 -4z m260 -459 c62 -16 89 -31 139 -76 128 -117 152 -296 58 -433 -88 -126 -252 -187 -384 -141 -29 10 -60 24 -69 31 -8 7 -20 13 -26 13 -18 0 -91 86 -119 141 -23 45 -26 65 -26 139 0 98 18 149 77 218 86 100 223 142 350 108z"
       id="path125"
       style="stroke:#000000;stroke-opacity:1;stroke-width:135.99999998;stroke-miterlimit:4;stroke-dasharray:none" />
    <path
       d="M3095 4853 c-43 -11 -105 -95 -105 -142 0 -43 33 -103 73 -132 51 -37 102 -38 157 -4 57 36 75 68 75 134 0 59 -16 90 -63 126 -25 18 -99 28 -137 18z"
       id="path127"
       style="stroke:#000000;stroke-opacity:1;stroke-width:135.99999998;stroke-miterlimit:4;stroke-dasharray:none" />
    <path
       d="M4197 4743 c-3 -5 -10 -41 -17 -80 l-12 -73 -46 -22 c-69 -31 -117 -29 -173 10 -26 18 -52 32 -58 32 -14 0 -131 -115 -131 -129 0 -6 15 -28 34 -48 52 -60 57 -73 40 -124 -25 -73 -36 -82 -106 -87 -35 -2 -69 -9 -75 -14 -9 -7 -13 -40 -13 -99 0 -103 0 -103 103 -114 l59 -7 24 -54 c13 -30 24 -62 24 -71 0 -17 -46 -83 -67 -96 -7 -4 -13 -18 -13 -31 0 -29 91 -126 118 -126 11 0 43 16 72 35 57 38 75 42 104 20 11 -8 30 -15 43 -15 38 0 58 -31 72 -108 l13 -72 89 0 c100 0 92 -7 103 95 6 54 32 85 70 85 12 0 31 7 42 15 28 21 43 18 104 -20 30 -19 61 -35 71 -35 20 0 119 105 119 126 0 9 -18 39 -40 66 -22 28 -40 53 -40 57 0 21 43 118 57 129 9 6 40 12 68 12 80 0 88 10 83 114 -5 100 -9 106 -79 106 -61 0 -92 25 -113 91 l-17 51 40 53 c23 30 41 62 41 72 0 20 -98 123 -117 123 -7 0 -31 -13 -55 -29 -63 -42 -81 -45 -135 -22 -26 10 -56 22 -65 24 -17 6 -38 63 -38 105 0 53 -15 62 -100 62 -43 0 -81 -3 -83 -7z m191 -423 c118 -62 165 -204 104 -315 -52 -94 -145 -138 -254 -120 -130 22 -219 172 -175 295 19 54 55 99 106 131 39 24 56 29 113 29 49 0 78 -6 106 -20z"
       id="path129"
       style="stroke:#000000;stroke-opacity:1;stroke-width:135.99999998;stroke-miterlimit:4;stroke-dasharray:none" />
    <path
       d="M9417 4012 c-43 -11 -94 -67 -102 -112 -25 -146 118 -241 231 -155 63 48 82 126 46 192 -33 61 -103 91 -175 75z"
       id="path131"
       style="stroke:#000000;stroke-opacity:1;stroke-width:131.60000003;stroke-miterlimit:4;stroke-dasharray:none" />
  </g>
  <text
     xml:space="preserve"
     transform="scale(0.75)"
     id="text3345"
     style="font-style:normal;font-weight:normal;font-size:666.667px;line-height:1.25;font-family:sans-serif;white-space:pre;shape-inside:url(#rect3347);fill:#000000;fill-opacity:1;stroke:none"><tspan
       x="843.06641"
       y="2175.3909"
       id="tspan178356"><tspan
         dx="0 127.125 53.34375"
         style="font-size:192px;font-family:'Noto Music';-inkscape-font-specification:'Noto Music'"
         id="tspan178354">Vis</tspan></tspan></text>
  <text
     xml:space="preserve"
     transform="matrix(0.75,0,0,0.75,-95.06473,17.63959)"
     id="text33817"
     style="font-style:normal;font-weight:normal;font-size:666.667px;line-height:1.25;font-family:sans-serif;white-space:pre;shape-inside:url(#rect33819);fill:#000000;fill-opacity:1;stroke:none;stroke-width:81.8;stroke-miterlimit:4;stroke-dasharray:none" />
  <text
     xml:space="preserve"
     transform="scale(0.75)"
     id="text73309"
     style="fill:black;fill-opacity:1;line-height:1.25;stroke:none;font-family:sans-serif;font-style:normal;font-weight:normal;font-size:40px;white-space:pre;shape-inside:url(#rect73311)" />
  <text
     xml:space="preserve"
     transform="scale(0.75)"
     id="text80399"
     style="fill:black;fill-opacity:1;line-height:1.25;stroke:none;font-family:sans-serif;font-style:normal;font-weight:normal;font-size:40px;white-space:pre;shape-inside:url(#rect80401)" />
  <text
     xml:space="preserve"
     transform="scale(0.75)"
     id="text155015"
     style="font-style:normal;font-variant:normal;font-weight:normal;font-stretch:normal;font-size:666.667px;line-height:1.25;font-family:'Ubuntu Mono';-inkscape-font-specification:'Ubuntu Mono';white-space:pre;shape-inside:url(#rect155017);fill:#000000;fill-opacity:1;stroke:none"><tspan
       x="814.26758"
       y="2298.8264"
       id="tspan178360"><tspan
         dx="0 333.33221 333.33221"
         id="tspan178358">Vis</tspan></tspan></text>
  <text
     xml:space="preserve"
     transform="matrix(0.75,0,0,0.75,484.12502,329.72685)"
     id="text166673"
     style="font-style:normal;font-variant:normal;font-weight:bold;font-stretch:normal;font-size:666.667px;line-height:1.25;font-family:'Ubuntu Mono';-inkscape-font-specification:'Ubuntu Mono, Bold';font-variant-ligatures:normal;font-variant-caps:normal;font-variant-numeric:normal;font-variant-east-asian:normal;white-space:pre;shape-inside:url(#rect166675);fill:#ffffff;fill-opacity:1;stroke:#000000;stroke-width:19.9333;stroke-miterlimit:4;stroke-dasharray:none;stroke-opacity:1"><tspan
       x="183.26953"
       y="1146.5491"
       id="tspan178362">Vis</tspan></text>
  <text
     xml:space="preserve"
     transform="scale(0.75)"
     id="text175777"
     style="fill:black;fill-opacity:1;line-height:1.25;stroke:none;font-family:sans-serif;font-style:normal;font-weight:normal;font-size:40px;white-space:pre;shape-inside:url(#rect175779)" />
</svg>
